<?xml version="1.0" encoding="UTF-8"?>
<svg id="Layer_1" data-name="Layer 1" xmlns="http://www.w3.org/2000/svg" viewBox="0 0 1311.66 1311.66">
  <defs>
    <style>
      .cls-1 {
        fill: none;
      }

      .cls-2 {
        fill: #ff2e97;
      }

      .cls-3 {
        fill: #fff;
      }

      .cls-4 {
        fill: #0fc;
      }

      .cls-5 {
        fill: #ef7019;
      }
    </style>
  </defs>
  <g>
    <circle class="cls-1" cx="655.83" cy="655.83" r="413.31"/>
    <path class="cls-2" d="M175.43,648.22l2.46-23.2,59.03-42.91-53.9-5.43,1.52-14.27,64.74,6.87-2.47,23.29-58.71,42.65,53.61,5.4-1.54,14.46-64.74-6.87Z"/>
    <path class="cls-4" d="M230.84,433.6l36.21-58.97,9.73,5.98-28.45,46.33,13.14,8.07,27.07-44.08,8.73,5.36-27.07,44.08,14.14,8.68,28.76-46.83,9.73,5.98-36.52,59.47-55.48-34.07Z"/>
    <path class="cls-3" d="M402.35,287.87l-43.83-9.52,16.79-10.87,33.57,7.68,6.82-33.83,16.55-10.71-9.28,43.68,46.79,9.59-17.2,11.14-36.03-8.06-7.47,36.23-17.04,11.03,10.34-46.34Z"/>
    <path class="cls-5" d="M585.43,194.86l-30.36,4.16-1.66-12.09,75.52-10.36,1.66,12.09-30.27,4.15,7.19,52.41-14.89,2.04-7.19-52.41Z"/>
    <path class="cls-4" d="M884.03,234l58.46,37.04-6.11,9.65-45.93-29.1-8.25,13.03,43.7,27.69-5.49,8.66-43.7-27.69-8.88,14.02,46.42,29.41-6.11,9.65-58.95-37.35,34.84-55Z"/>
    <path class="cls-3" d="M1038.17,365.46l29.61,46.52c6.13,9.63,7.76,14.73,6.43,19.74-1.12,4.06-4.66,7.94-10.92,11.93-6.01,3.83-9.86,5.23-12.97,4.9-3.11-.34-5.35-1.68-8.02-4.61,3.83,7.28,2.68,10.21-6.1,15.68l-10.87,6.92-8.12-12.76,8.23-5.24c7.39-4.93,7.77-7.61,2.39-15.87l-19.44-30.55-17.13,10.9-8.02-12.6,54.92-34.96ZM1037.71,425.81c5.87,9.22,8.99,10.48,15.57,6.29,7.58-4.82,7.93-7.71,1.96-17.1l-19.34-30.38-17.37,11.06,19.18,30.14Z"/>
    <path class="cls-3" d="M1076.72,584.73l-13.62-5.71-1.92-16.78,68.92,29.62,2.33,20.27-60.49,43.88-1.87-16.29,11.95-8.84-5.29-46.15ZM1120.78,603.06l-32.92-13.81,4,34.91,28.92-21.1Z"/>
    <path class="cls-2" d="M1068.44,901.44l-8.75,12.22-21.04-15.05-29.87,41.75,21.04,15.05-8.75,12.22-52.94-37.88,8.75-12.22,22.07,15.79,29.87-41.75-22.07-15.79,8.75-12.22,52.94,37.88Z"/>
    <path class="cls-3" d="M843.99,1091.09c-3.83-1.39-7.09-4.41-10.68-9.91-1.68-2.53-3.41-5.59-6.8-11.97-7.64-14.39-9.19-20.64-6.86-26.86,1.73-4.45,5.3-8.12,12.31-12.4,2.67-1.64,13.01-7.35,21.02-11.6,17.58-9.34,22.6-11.34,28.93-11.28,4.89.05,9.5,2.69,13.29,7.97,2.53,3.52,4.35,6.53,9.34,15.92,7.14,13.45,8.69,19.48,6.47,25.3-1.64,4.41-5,7.85-12.09,12.39-2.79,1.82-11.32,6.56-21.84,12.15-20.34,10.8-26.32,12.65-33.1,10.29ZM890.02,1036.26c-5.95-11.21-8.74-14.37-12.8-14.31-4.1-.03-7,1.18-23.46,9.92-14.83,7.87-18.21,10.44-19.17,14.27-.84,3.21.53,7.24,5.7,16.98,9.57,18.02,9.83,18.1,34.66,4.91,24.57-13.05,24.77-13.49,15.07-31.76Z"/>
    <path class="cls-3" d="M630,1129.43c-2.81-2.95-4.39-7.11-5.15-13.63-.37-3.02-.57-6.53-.76-13.75-.44-16.29.96-22.58,5.81-27.1,3.53-3.22,8.36-4.91,16.54-5.62,3.12-.28,14.92-.79,23.99-1.04,19.9-.54,25.28-.09,30.93,2.78,4.36,2.23,7.31,6.64,8.36,13.05.7,4.28.99,7.78,1.28,18.42.41,15.22-.89,21.31-5.46,25.53-3.43,3.22-7.97,4.8-16.35,5.71-3.31.38-13.06.84-24.96,1.16-23.02.62-29.2-.39-34.22-5.52ZM695.62,1100.82c-.34-12.68-1.43-16.75-5.09-18.51-3.66-1.85-6.79-2.06-25.43-1.56-16.78.45-20.96,1.25-23.51,4.25-2.18,2.5-2.75,6.71-2.45,17.74.55,20.39.75,20.58,28.85,19.83,27.8-.75,28.19-1.05,27.63-21.73Z"/>
    <path class="cls-3" d="M493.4,1106.99l-46.56-20.45c-7.69-3.38-10.79-5.05-13.16-7.17-6.44-5.49-6.83-11.63-1.57-23.61,4-9.12,7.63-13.49,12.67-15.01,4.34-1.4,9.33-.38,18.63,3.7l34.5,15.15,8.01-18.23,13.67,6-26.18,59.61ZM462.38,1057.23c-9.56-4.2-12.89-3.42-16.11,3.91-3.53,8.04-2.16,10.99,7.04,15.03l31.28,13.74,8.44-19.22-30.65-13.46Z"/>
    <path class="cls-5" d="M340.97,955.52l.52-.44c3.2-2.72,4.4-4.77,4.02-6.88-.48-2.67-3.32-6.92-9.51-14.2-5.25-6.17-8.76-9.85-13.98-14.64-2.77-2.51-4.49-3.48-6.29-3.49-2.01.04-3.94.79-5.5,2.12-2.9,2.46-3.24,4.93-1.08,8.98,1.32,2.46,1.39,2.54,12.82,16.13l6.07,7.14c8.84,10.55,11.5,15.33,11.31,20.24-.06,4.15-2.24,7.92-6.62,11.65-5.5,4.68-11.18,7.19-15.28,6.58-5.97-.69-13.6-7.27-27.51-23.63-8.47-9.96-12.65-15.64-14.51-19.94-3.46-7.69-1.95-12.69,5.71-19.2l.97-.82,9.48,11.15c-2.84,2.54-3.69,4.55-3.11,6.74.8,2.9,4.25,8.17,8.93,13.67,7.96,9.37,14.12,15.41,17.13,16.69,2.34,1.09,4.8.53,7.11-1.43,2.16-1.83,3-3.7,2.62-5.81-.49-2.53-2.59-5.61-9.23-13.42l-7.14-8.4c-12.64-14.87-15.68-20.11-14.99-26.07.39-3.92,2.84-7.66,7.75-11.83,5.21-4.42,9.72-6.34,14.19-5.91,5.9.62,12.38,6.13,26.6,22.86,15.17,17.85,19.09,24.12,18.77,29.77-.26,4.06-2.41,7.56-7.1,11.54-.45.38-1.56,1.33-2.59,2.08l-9.54-11.23Z"/>
  </g>
  <g>
    <g>
      <rect class="cls-4" x="768.54" y="596.05" width="169.45" height="28.89"/>
      <rect class="cls-4" x="768.69" y="716.41" width="169.45" height="28.89"/>
      <rect class="cls-4" x="826.95" y="655.55" width="102.91" height="28.89"/>
    </g>
    <g>
      <path class="cls-2" d="M455.06,624.19h-70.31v-27.92h174.87v27.92h-70.08v121.08h-34.48v-121.08Z"/>
      <path class="cls-5" d="M565,596.26h53.51l112.18,123.98-.67-123.98h32.91v149h-53.74l-111.51-123.31.67,123.31h-33.36v-149Z"/>
    </g>
  </g>
</svg>